<?xml version="1.0" encoding="utf-8"?>
<!-- Generator: Adobe Illustrator 26.3.1, SVG Export Plug-In . SVG Version: 6.00 Build 0)  -->
<svg version="1.1" id="Capa_1" xmlns="http://www.w3.org/2000/svg" xmlns:xlink="http://www.w3.org/1999/xlink" x="0px" y="0px"
	 width="300px" height="37px" viewBox="0 0 300 37" style="enable-background:new 0 0 300 37;" xml:space="preserve">
<style type="text/css">
	.st0{fill:#FFFFFF;}
</style>
<g>
	<g>
		<path class="st0" d="M31.2,24.6c-0.5,2.1-1.5,4-2.8,5.7c-1.5,1.9-3.3,3.4-5.5,4.5c-2.1,1.1-4.5,1.6-7,1.6c-2.8,0-5.5-0.7-7.9-2.1
			C5.5,33,3.6,31,2.2,28.6c-1.4-2.4-2.2-5-2.2-7.9c0-2.8,0.7-5.5,2.1-7.9C3.6,10.3,5.5,8.4,8,6.9c2.4-1.4,5.1-2.1,7.9-2.1
			c2.4,0,4.8,0.5,7,1.6c2.2,1.1,4,2.6,5.6,4.5c1.3,1.7,2.3,3.7,2.8,5.7l-6,0c-0.7-1.8-1.9-3.2-3.5-4.3c-1.7-1.2-3.7-1.8-5.8-1.8
			c-1.8,0-3.5,0.5-5.1,1.4C9.2,12.8,8,14,7.1,15.6c-0.9,1.5-1.4,3.2-1.4,5.1c0,1.8,0.5,3.5,1.4,5.1c0.9,1.6,2.2,2.8,3.7,3.7
			c1.5,0.9,3.2,1.4,5.1,1.4c2.1,0,4.1-0.6,5.8-1.8c1.6-1.1,2.8-2.6,3.5-4.4H31.2z"/>
		<path class="st0" d="M50.8,4.5v6.3c-0.4,0-0.7-0.1-0.8-0.1c-1.8,0-3.5,0.5-5.1,1.4c-1.6,0.9-2.8,2.2-3.7,3.7
			c-0.9,1.5-1.4,3.2-1.4,5.1L40,36.6H34L34,19.8c0-2.7,0.7-5.3,2.1-7.7c1.4-2.3,3.4-4.2,5.9-5.6c2.4-1.4,5-2.1,7.8-2.1L50.8,4.5z"/>
		<path class="st0" d="M97,18.7v17.8h-5.6V18.7c0-2.5-0.6-8.2-7.3-8.2c-5.7,0-6.2,5.7-6.2,8.2v17.8h-5.7V18.7c0-2.5-0.5-8.2-6.2-8.2
			c-6.7,0-7.3,5.7-7.3,8.2v17.8H53V18.7C53,16,53.4,4.9,65.5,4.9c2.8,0,7.6,1.6,9.4,5.4c0,0,2.4-5.4,9.4-5.4C96.6,4.9,97,16,97,18.7
			z"/>
		<circle class="st0" cx="16" cy="20.7" r="6.2"/>
	</g>
	<g>
		<path class="st0" d="M140.1,24.6c-0.5,2.1-1.5,4-2.8,5.7c-1.5,1.9-3.3,3.4-5.5,4.5c-2.1,1.1-4.5,1.6-7,1.6c-2.8,0-5.5-0.7-7.9-2.1
			c-2.4-1.4-4.4-3.4-5.8-5.8c-1.4-2.4-2.2-5-2.2-7.9c0-2.8,0.7-5.5,2.1-7.9c1.4-2.4,3.4-4.4,5.8-5.8c2.4-1.4,5.1-2.1,7.9-2.1
			c2.4,0,4.8,0.5,7,1.6c2.2,1.1,4,2.6,5.6,4.5c1.3,1.7,2.3,3.7,2.8,5.7l-6,0c-0.7-1.8-1.9-3.2-3.5-4.3c-1.7-1.2-3.7-1.8-5.8-1.8
			c-1.8,0-3.5,0.5-5.1,1.4c-1.6,0.9-2.8,2.2-3.7,3.7c-0.9,1.5-1.4,3.2-1.4,5.1c0,1.8,0.5,3.5,1.4,5.1c0.9,1.6,2.2,2.8,3.7,3.7
			c1.5,0.9,3.2,1.4,5.1,1.4c2.1,0,4.1-0.6,5.8-1.8c1.6-1.1,2.8-2.6,3.5-4.4H140.1z"/>
		<path class="st0" d="M172.2,22.7c0,2.7-0.7,5.1-2,7.2c-1.3,2.1-3.2,3.8-5.4,4.9c-2.3,1.1-4.8,1.7-7.2,1.7c-2.6,0-5-0.6-7.2-1.7
			c-2.2-1.1-4-2.8-5.4-4.9c-1.3-2.1-2-4.6-2-7.3V4.9h5.6v17.8c0,2.5,0.9,4.5,2.6,6c1.7,1.4,3.8,2.2,6.3,2.2c2.4,0,4.5-0.7,6.3-2.2
			c1.7-1.5,2.6-3.5,2.6-6V4.9h5.6L172.2,22.7z"/>
		<path class="st0" d="M252.8,20.7c0,2.8-0.7,5.5-2.1,7.9c-1.4,2.4-3.4,4.4-5.8,5.8c-2.4,1.4-5.1,2.2-8,2.2c-2.8,0-5.5-0.7-7.9-2.1
			c-2.4-1.4-4.4-3.4-5.8-5.8c-1.4-2.4-2.2-5-2.2-7.9c0-2.8,0.7-5.5,2.1-7.9c1.4-2.4,3.4-4.4,5.8-5.8c2.4-1.4,5.1-2.1,7.9-2.1
			c2.8,0,5.5,0.7,7.9,2.1c2.4,1.4,4.4,3.4,5.9,5.8C252.1,15.2,252.8,17.8,252.8,20.7z M246.7,20.7c0-1.8-0.4-3.4-1.3-4.9
			c-0.8-1.5-2-2.7-3.5-3.5c-1.5-0.9-3.1-1.3-4.9-1.3c-1.8,0-3.4,0.4-4.9,1.3c-1.5,0.8-2.7,2-3.5,3.5c-0.9,1.5-1.3,3.1-1.3,4.9
			c0,1.8,0.4,3.4,1.3,4.9c0.9,1.5,2.1,2.7,3.6,3.5c1.5,0.9,3.1,1.3,4.8,1.3c1.8,0,3.4-0.4,4.9-1.3c1.5-0.9,2.7-2.1,3.5-3.6
			C246.2,24,246.7,22.4,246.7,20.7z"/>
		<path class="st0" d="M300,18.7v17.8h-5.6V18.7c0-2.5-0.6-8.2-7.3-8.2c-5.7,0-6.2,5.7-6.2,8.2v17.8h-5.7V18.7
			c0-2.5-0.5-8.2-6.2-8.2c-6.7,0-7.3,5.7-7.3,8.2v17.8H256V18.7c0-2.7,0.4-13.9,12.6-13.9c2.8,0,7.6,1.6,9.4,5.4
			c0,0,2.4-5.4,9.4-5.4C299.6,4.9,300,16,300,18.7z"/>
		<g>
			<path class="st0" d="M220.3,30.6v5.9h-7.9c-4.7,0-8.6-3.8-8.6-8.6V15.7h6.1v10.8c0,2.3,1.9,4.1,4.1,4.1H220.3z"/>
			<path class="st0" d="M217.1,9.4h-13.2v-9h6.1v3.9h7.1V9.4z"/>
		</g>
		<g>
			<path class="st0" d="M177.7,30.2h6.4v6.3h-6.4L177.7,30.2z"/>
			<path class="st0" d="M200.7,28.8c-0.6,3.5-4.1,7.3-11,7.6v-6.3c3.9,0,4.5-2,4.5-3c0-0.8-0.3-2-2-2.8c-0.1-0.1-0.5-0.3-4.4-1.3
				l-2.1-0.5c-2.4-0.7-4.4-1.4-5.9-2c-1.4-0.6-2.6-1.5-3.4-2.5c-0.8-1-1.2-3.2-1.2-4.7c0-5.4,4.3-9.1,9.9-9.1h11.9l0.1,5.6l-10.7,0
				c-2.8,0-4.4,0.9-4.8,2.6c-0.1,0.3-0.1,0.5-0.1,0.8c0,1,0.8,1.8,2.3,2.4c0.2,0.1,1.1,0.4,5.4,1.6c3.6,0.9,6.2,1.7,7.7,2.5
				C199.5,21.2,201.5,24.3,200.7,28.8z"/>
		</g>
	</g>
</g>
</svg>
